<svg width="67" height="67" viewBox="0 0 67 67" fill="none" xmlns="http://www.w3.org/2000/svg">
<path fill-rule="evenodd" clip-rule="evenodd" d="M22.422 11.5906C22.422 8.65226 23.5892 5.83429 25.6669 3.75659C27.7446 1.67889 30.5626 0.511647 33.5009 0.511647C36.4392 0.511647 39.2572 1.67889 41.3349 3.75659C43.4126 5.83429 44.5798 8.65226 44.5798 11.5906C44.5798 14.5289 43.4126 17.3469 41.3349 19.4246C39.2572 21.5023 36.4392 22.6695 33.5009 22.6695C30.5626 22.6695 27.7446 21.5023 25.6669 19.4246C23.5892 17.3469 22.422 14.5289 22.422 11.5906ZM11.7068 29.738C13.962 27.5971 16.953 26.4035 20.0626 26.4035C23.1722 26.4035 26.1632 27.5971 28.4185 29.738L28.4663 29.7859L33.5009 34.8204L38.5403 29.7859L38.5881 29.738C40.8429 27.5999 43.8319 26.408 46.9392 26.408C50.0465 26.408 53.0355 27.5999 55.2903 29.738C56.4102 30.8002 57.3024 32.0791 57.9126 33.4969C58.5227 34.9148 58.838 36.4419 58.8394 37.9855C58.8407 39.529 58.528 41.0567 57.9204 42.4756C57.3127 43.8946 56.4227 45.175 55.3046 46.2391L35.1663 65.8127C34.7197 66.2468 34.1214 66.4897 33.4985 66.4897C32.8757 66.4897 32.2773 66.2468 31.8307 65.8127L11.6972 46.2391C10.5795 45.1754 9.68982 43.8955 9.08219 42.4772C8.47456 41.0589 8.16168 39.5319 8.16258 37.9889C8.16347 36.4459 8.47812 34.9193 9.0874 33.5017C9.69668 32.0841 10.5879 30.8004 11.7068 29.738Z" fill="white"/>
</svg>
